<svg width="104" height="34" viewBox="0 0 104 34" fill="none" xmlns="http://www.w3.org/2000/svg">
<circle cx="13" cy="17" r="12.7045" fill="url(#paint0_linear_121_9)" stroke="url(#paint1_radial_121_9)" stroke-width="0.590909"/>
<circle cx="13" cy="17" r="6.79545" fill="url(#paint2_linear_121_9)"/>
<circle cx="13" cy="17" r="6.79545" fill="white"/>
<circle cx="13" cy="17" r="6.79545" stroke="url(#paint3_radial_121_9)" stroke-width="0.590909"/>
<path d="M33.0247 19.664V17.264H37.2247C37.8007 17.264 38.3047 17.152 38.7367 16.928C39.1847 16.688 39.5367 16.36 39.7927 15.944C40.0487 15.512 40.1767 15.008 40.1767 14.432C40.1767 13.856 40.0487 13.36 39.7927 12.944C39.5367 12.512 39.1847 12.184 38.7367 11.96C38.3047 11.72 37.8007 11.6 37.2247 11.6H33.0247V9.2H37.3687C38.4247 9.2 39.3687 9.416 40.2007 9.848C41.0487 10.28 41.7127 10.888 42.1927 11.672C42.6887 12.456 42.9367 13.376 42.9367 14.432C42.9367 15.488 42.6887 16.408 42.1927 17.192C41.7127 17.976 41.0487 18.584 40.2007 19.016C39.3687 19.448 38.4247 19.664 37.3687 19.664H33.0247ZM31.1287 26V9.2H33.8887V26H31.1287ZM45.2531 26V14.48H47.8931V26H45.2531ZM47.8931 19.592L46.9811 19.136C46.9811 17.68 47.3011 16.504 47.9411 15.608C48.5971 14.696 49.5811 14.24 50.8931 14.24C51.4691 14.24 51.9891 14.344 52.4531 14.552C52.9171 14.76 53.3491 15.096 53.7491 15.56L52.0211 17.336C51.8131 17.112 51.5811 16.952 51.3251 16.856C51.0691 16.76 50.7731 16.712 50.4371 16.712C49.7011 16.712 49.0931 16.944 48.6131 17.408C48.1331 17.872 47.8931 18.6 47.8931 19.592ZM59.9549 26.24C58.8349 26.24 57.8189 25.976 56.9069 25.448C55.9949 24.904 55.2669 24.176 54.7229 23.264C54.1949 22.352 53.9309 21.336 53.9309 20.216C53.9309 19.096 54.1949 18.088 54.7229 17.192C55.2669 16.296 55.9949 15.584 56.9069 15.056C57.8189 14.512 58.8349 14.24 59.9549 14.24C61.0909 14.24 62.1149 14.504 63.0269 15.032C63.9389 15.56 64.6589 16.28 65.1869 17.192C65.7309 18.088 66.0029 19.096 66.0029 20.216C66.0029 21.336 65.7309 22.352 65.1869 23.264C64.6589 24.176 63.9389 24.904 63.0269 25.448C62.1149 25.976 61.0909 26.24 59.9549 26.24ZM59.9549 23.696C60.6109 23.696 61.1869 23.552 61.6829 23.264C62.1949 22.96 62.5869 22.544 62.8589 22.016C63.1469 21.488 63.2909 20.888 63.2909 20.216C63.2909 19.544 63.1469 18.952 62.8589 18.44C62.5709 17.928 62.1789 17.528 61.6829 17.24C61.1869 16.936 60.6109 16.784 59.9549 16.784C59.3149 16.784 58.7389 16.936 58.2269 17.24C57.7309 17.528 57.3389 17.928 57.0509 18.44C56.7789 18.952 56.6429 19.544 56.6429 20.216C56.6429 20.888 56.7789 21.488 57.0509 22.016C57.3389 22.544 57.7309 22.96 58.2269 23.264C58.7389 23.552 59.3149 23.696 59.9549 23.696ZM72.7824 26V9.68H75.5424V26H72.7824ZM67.3104 11.72V9.2H81.0144V11.72H67.3104ZM85.4332 26.24C84.2812 26.24 83.2412 25.984 82.3132 25.472C81.4012 24.944 80.6732 24.224 80.1292 23.312C79.6012 22.4 79.3372 21.376 79.3372 20.24C79.3372 19.104 79.6012 18.088 80.1292 17.192C80.6572 16.28 81.3692 15.56 82.2652 15.032C83.1772 14.504 84.1852 14.24 85.2892 14.24C86.3612 14.24 87.3052 14.488 88.1212 14.984C88.9532 15.48 89.6012 16.16 90.0652 17.024C90.5452 17.888 90.7852 18.872 90.7852 19.976C90.7852 20.168 90.7692 20.368 90.7372 20.576C90.7212 20.768 90.6892 20.984 90.6412 21.224H81.1852V19.064H89.2732L88.2892 19.928C88.2572 19.224 88.1212 18.632 87.8812 18.152C87.6412 17.672 87.2972 17.304 86.8492 17.048C86.4172 16.792 85.8812 16.664 85.2412 16.664C84.5692 16.664 83.9852 16.808 83.4892 17.096C82.9932 17.384 82.6092 17.792 82.3372 18.32C82.0652 18.832 81.9292 19.448 81.9292 20.168C81.9292 20.888 82.0732 21.52 82.3612 22.064C82.6492 22.608 83.0572 23.032 83.5852 23.336C84.1132 23.624 84.7212 23.768 85.4092 23.768C86.0012 23.768 86.5452 23.664 87.0412 23.456C87.5532 23.248 87.9852 22.944 88.3372 22.544L90.0172 24.248C89.4572 24.904 88.7772 25.4 87.9772 25.736C87.1772 26.072 86.3292 26.24 85.4332 26.24ZM100.222 26L95.3495 20.12L100.198 14.48H103.342L97.7735 20.816L97.8935 19.304L103.582 26H100.222ZM92.9015 26V8.72H95.5415V26H92.9015Z" fill="#1B223C"/>
<defs>
<linearGradient id="paint0_linear_121_9" x1="13" y1="4" x2="13" y2="30" gradientUnits="userSpaceOnUse">
<stop stop-color="#4E74FF"/>
<stop offset="1" stop-color="#2C59FF"/>
</linearGradient>
<radialGradient id="paint1_radial_121_9" cx="0" cy="0" r="1" gradientUnits="userSpaceOnUse" gradientTransform="translate(13 17) rotate(89.968) scale(26.9318)">
<stop offset="0.046875" stop-color="#B5C2FB" stop-opacity="0"/>
<stop offset="1" stop-color="#B5C2FB"/>
</radialGradient>
<linearGradient id="paint2_linear_121_9" x1="13" y1="9.90906" x2="13" y2="24.0909" gradientUnits="userSpaceOnUse">
<stop stop-color="#4E74FF"/>
<stop offset="1" stop-color="#2C59FF"/>
</linearGradient>
<radialGradient id="paint3_radial_121_9" cx="0" cy="0" r="1" gradientUnits="userSpaceOnUse" gradientTransform="translate(13 17) rotate(89.968) scale(14.6901)">
<stop offset="0.046875" stop-color="#B5C2FB" stop-opacity="0"/>
<stop offset="1" stop-color="#B5C2FB"/>
</radialGradient>
</defs>
</svg>
